<?xml version="1.0" encoding="UTF-8" standalone="no"?>
<!-- original viewBox="0 0 120 60.000002" -->
<svg
   xmlns:dc="http://purl.org/dc/elements/1.1/"
   xmlns:cc="http://creativecommons.org/ns#"
   xmlns:rdf="http://www.w3.org/1999/02/22-rdf-syntax-ns#"
   xmlns:svg="http://www.w3.org/2000/svg"
   xmlns="http://www.w3.org/2000/svg"
   xmlns:sodipodi="http://sodipodi.sourceforge.net/DTD/sodipodi-0.dtd"
   xmlns:inkscape="http://www.inkscape.org/namespaces/inkscape"
   viewBox="-5 12 130 35"
   version="1.1"
   id="svg19"
   sodipodi:docname="hootsuite-ar21.svg"
   inkscape:version="0.92.4 (5da689c313, 2019-01-14)">
  <metadata
     id="metadata23">
    <rdf:RDF>
      <cc:Work
         rdf:about="">
        <dc:format>image/svg+xml</dc:format>
        <dc:type
           rdf:resource="http://purl.org/dc/dcmitype/StillImage" />
        <dc:title>Hootsuite</dc:title>
      </cc:Work>
    </rdf:RDF>
  </metadata>
  <sodipodi:namedview
     pagecolor="#ffffff"
     bordercolor="#666666"
     borderopacity="1"
     objecttolerance="10"
     gridtolerance="10"
     guidetolerance="10"
     inkscape:pageopacity="0"
     inkscape:pageshadow="2"
     inkscape:window-width="1920"
     inkscape:window-height="1001"
     id="namedview21"
     showgrid="false"
     inkscape:zoom="1.3836735"
     inkscape:cx="122.5"
     inkscape:cy="26.594999"
     inkscape:window-x="-9"
     inkscape:window-y="-9"
     inkscape:window-maximized="1"
     inkscape:current-layer="svg19" />
  <defs
     id="defs5">
    <mask
       id="a"
       width="244.96"
       height="53.19"
       x=".04"
       y="0"
       maskUnits="userSpaceOnUse">
      <path
         d="M 0,0.11 H 245 V 53.3 H 0 Z"
         transform="translate(0,-0.11)"
         id="path2"
         inkscape:connector-curvature="0"
         style="fill:#ffffff" />
    </mask>
  </defs>
  <title
     id="title7">Hootsuite</title>
  <g
     id="g833"
     transform="matrix(0.42800886,0,0,0.42800886,10.00001,15.702231)">
    <path
       style="fill:currentColor"
       inkscape:connector-curvature="0"
       id="path9"
       d="m 57.53,15.810001 v 11.73 h 11.3 v -11.73 h 6.84 v 30.4 h -6.84 v -12.68 h -11.3 v 12.68 h -6.84 v -30.4 h 6.84 m 32.47,7.89 c -7.11,0 -11.79,4.56 -11.79,11.68 0,7.12 4.89,11.32 11.33,11.32 5.85,0 11.56,-3.7 11.56,-11.72 0.05,-6.68 -4.45,-11.28 -11.1,-11.28 z m -0.28,18.13 c -2.88,0 -4.46,-2.85 -4.46,-6.58 0,-3.3 1.26,-6.63 4.5,-6.63 3.24,0 4.24,3.29 4.24,6.54 0,3.97 -1.62,6.63 -4.33,6.63 z m 25.52,-18.13 c -7.11,0 -11.79,4.56 -11.79,11.68 0,7.12 4.95,11.32 11.38,11.32 5.85,0 11.56,-3.7 11.56,-11.72 0.05,-6.68 -4.45,-11.28 -11.15,-11.28 z m -0.24,18.09 c -2.88,0 -4.45,-2.85 -4.45,-6.58 0,-3.3 1.26,-6.63 4.5,-6.63 3.24,0 4.36,3.33 4.36,6.58 -0.08,3.97 -1.74,6.63 -4.41,6.63 z m 13.94,-12.58 v 9.06 c 0,3.11 0.63,5.23 1.9,6.53 a 7.26,7.26 0 0 0 5.16,1.9 14.24,14.24 0 0 0 4.41,-0.59 v -5.18 a 8.14,8.14 0 0 1 -2,0.18 c -2,0 -2.7,-1.22 -2.7,-3.88 v -8 h 4.91 v -5.07 h -4.91 v -6.68 a 6.66,6.66 0 0 0 -6.71,6.67 v 5.05 m 70,0.01 v 9.06 c 0,3.11 0.63,5.23 1.89,6.53 a 7.3,7.3 0 0 0 5.17,1.9 14.31,14.31 0 0 0 4.42,-0.59 l -0.05,-5.18 a 8.18,8.18 0 0 1 -2,0.18 c -2,0 -2.69,-1.22 -2.69,-3.88 v -8 h 4.9 v -5.07 h -4.9 v -6.68 a 6.66,6.66 0 0 0 -6.74,6.67 v 5.05 m -54.85,11.05 a 13.31,13.31 0 0 0 5.9,1.62 c 2.07,0 2.93,-0.67 2.93,-1.8 0,-1.13 -0.68,-1.71 -3.2,-2.57 -4.59,-1.48 -6.35,-4 -6.3,-6.58 0,-4.15 3.51,-7.26 9,-7.26 a 14.38,14.38 0 0 1 6.16,1.31 l -1.21,4.73 a 11.63,11.63 0 0 0 -4.77,-1.22 c -1.66,0 -2.61,0.68 -2.61,1.76 0,1.08 0.86,1.62 3.56,2.57 4.18,1.4 5.89,3.56 5.94,6.76 0,4.15 -3.2,7.17 -9.5,7.17 a 15.52,15.52 0 0 1 -7.11,-1.58 l 1.21,-4.87 m 38.72,-1.16 c 0,2.88 0.09,5.22 0.18,7.08 h -5.94 l -0.32,-3.12 h -0.13 a 7.85,7.85 0 0 1 -6.89,3.61 c -4.5,0 -7.74,-2.79 -7.74,-9.6 v -12.94 h 6.84 v 11.86 c 0,3.2 1,5.13 3.47,5.13 a 3.8,3.8 0 0 0 3.66,-3.87 v -13.12 h 6.84 v 15 m 4.71,-15 h 6.84 v 22.05 h -6.84 z m 3.37,-2.89 a 3.59,3.59 0 0 1 -3.78,-3.65 3.86,3.86 0 1 1 3.86,3.65 h -0.05 m 42.47,16.1 a 17.64,17.64 0 0 0 0.22,-2.75 c 0,-5.46 -2.7,-11 -9.81,-11 -7.61,0 -11.11,6.18 -11.11,11.77 0,7 4.27,11.27 11.74,11.27 a 20.77,20.77 0 0 0 8,-1.39 l -0.9,-4.65 a 18.17,18.17 0 0 1 -6.08,1 c -3.2,0 -6,-1.35 -6.21,-4.24 z m -14.22,-4.74 c 0.18,-1.8 1.35,-4.46 4.27,-4.46 3.11,0 3.83,2.84 3.83,4.46 z" />
    <path
       style="fill:currentColor"
       inkscape:connector-curvature="0"
       id="path15"
       d="m 23.79,16.020001 a 2.53,2.53 0 1 1 -3.34,3.33 5,5 0 0 0 -0.23,1.5 5.06,5.06 0 1 0 10.11,0 4.72,4.72 0 0 0 -0.22,-1.49 5,5 0 0 0 -6.32,-3.34 z m -11.16,4.81 a 2.54,2.54 0 0 1 -1,-4.85 5,5 0 0 0 -1.49,-0.22 5.06,5.06 0 0 0 0,10.12 5,5 0 0 0 5.07,-5 5.34,5.34 0 0 0 -0.22,-1.5 2.53,2.53 0 0 1 -2.36,1.45 z" />
    <path
       style="fill:currentColor"
       inkscape:connector-curvature="0"
       id="path17"
       d="m 26.54,9.2000014 a 17.64,17.64 0 0 0 -17.73,0 17.58,17.58 0 0 0 -8.81,-2.34 V 24.570001 a 35.39,35.39 0 0 0 35.35,35.43 V 6.8600014 a 17.58,17.58 0 0 0 -8.81,2.34 z M 25.25,28.460001 a 7.63,7.63 0 0 1 -4.05,-1.19 l -3.54,3.52 -3.53,-3.55 a 7.43,7.43 0 0 1 -4,1.17 7.6,7.6 0 1 1 7.57,-8.25 7.58,7.58 0 1 1 7.53,8.3 z" />
  </g>
</svg>
