<svg viewBox="0 0 500 481" fill="currentColor" xmlns="http://www.w3.org/2000/svg">
<path d="M476.602 391.678C442.543 442.766 284.737 447.989 249.997 448.443C215.257 447.989 57.4503 442.766 23.3913 391.678C19.3042 394.857 16.5795 398.944 16.5795 404.393V415.519C16.5795 457.979 136.921 480.912 250.224 480.912C363.527 480.912 483.868 457.979 483.868 415.519V404.393C483.868 398.944 481.143 394.857 477.056 391.678H476.602Z" />
<path d="M35.4255 56.7649H31.1114C26.7223 56.7649 23.1643 60.3229 23.1643 64.712V231.828C23.1643 236.217 26.7223 239.775 31.1114 239.775H35.4255C39.8146 239.775 43.3726 236.217 43.3726 231.828V64.712C43.3726 60.3229 39.8146 56.7649 35.4255 56.7649Z" />
<path d="M468.655 208.895C459.8 91.7321 381.237 0 249.77 0C118.302 0 39.7396 91.7321 30.8843 208.895C30.8843 213.209 0.00415255 220.021 0.00415255 233.417V294.95C-0.449967 306.303 19.9854 303.125 27.2513 308.347C28.1595 309.028 28.6137 309.936 28.6137 311.072V348.309C28.6137 390.769 137.148 412.794 249.997 414.384C362.845 412.567 471.38 390.542 471.38 348.309V311.072C471.38 311.072 471.834 309.028 472.742 308.347C479.781 303.125 500.443 306.303 499.989 294.95V233.417C499.989 220.248 469.109 213.209 469.109 209.122L468.655 208.895ZM441.408 325.149C441.408 399.625 58.3585 399.625 58.3585 325.149V238.64C58.3585 137.371 137.148 134.873 242.504 134.873H257.263C362.618 134.873 441.408 137.371 441.408 238.64V325.149Z" />
</svg>
